<?xml version="1.0" standalone="no"?>
<!DOCTYPE svg PUBLIC "-//W3C//DTD SVG 20010904//EN"
 "http://www.w3.org/TR/2001/REC-SVG-20010904/DTD/svg10.dtd">
<svg version="1.0" xmlns="http://www.w3.org/2000/svg"
 width="260.000000pt" height="260.000000pt" viewBox="0 0 260.000000 260.000000"
 preserveAspectRatio="xMidYMid meet">
<metadata>
Created by potrace 1.11, written by Peter Selinger 2001-2013
</metadata>
<g transform="translate(0.000000,260.000000) scale(0.100000,-0.100000)"
fill="#000000" stroke="none">
<path d="M0 1300 l0 -1300 1300 0 1300 0 0 1126 0 1126 -236 -228 -235 -228
-105 105 -105 105 305 297 305 297 -1265 0 -1264 0 0 -1300z m712 429 l3 -420
171 418 172 418 126 3 126 3 2 -418 3 -417 170 417 170 417 127 0 127 0 -176
-357 c-96 -197 -222 -454 -279 -570 l-103 -213 -110 0 -111 0 -2 427 -3 427
-182 -425 -181 -424 -111 -3 -111 -3 -1 48 c0 26 -17 283 -37 571 l-37 522
122 0 123 0 2 -421z m-362 -269 l0 -431 -147 3 -148 3 -3 415 c-1 228 0 421 3
427 3 10 43 13 150 13 l145 0 0 -430z m1792 -677 c26 -71 49 -134 50 -141 2
-10 -120 -56 -404 -152 l-408 -139 -41 132 c-23 73 -42 136 -43 140 0 5 127
53 284 108 157 55 335 117 395 139 61 21 112 39 115 39 3 1 27 -56 52 -126z"/>
<path d="M2541 2593 c0 -5 13 -18 30 -31 l29 -24 0 31 c0 28 -3 31 -30 31 -16
0 -30 -3 -29 -7z"/>
</g>
</svg>
